<svg width="209" height="71" viewBox="0 0 209 71" fill="none" xmlns="http://www.w3.org/2000/svg">
<path d="M53 26.1818V0H64.3523C66.3466 0 68.0213 0.268466 69.3764 0.805399C70.7401 1.34233 71.767 2.10085 72.4574 3.08097C73.1563 4.06108 73.5057 5.21591 73.5057 6.54545C73.5057 7.50852 73.2926 8.38636 72.8665 9.17898C72.4489 9.97159 71.8608 10.6364 71.1023 11.1733C70.3438 11.7017 69.4574 12.0682 68.4432 12.2727V12.5284C69.5682 12.571 70.5909 12.8565 71.5114 13.3849C72.4318 13.9048 73.1648 14.625 73.7102 15.5455C74.2557 16.4574 74.5284 17.5313 74.5284 18.767C74.5284 20.1989 74.1534 21.473 73.4034 22.5895C72.6619 23.706 71.6051 24.5838 70.233 25.223C68.8608 25.8622 67.2244 26.1818 65.3239 26.1818H53ZM60.108 20.5057H63.4318C64.625 20.5057 65.5199 20.2841 66.1165 19.8409C66.7131 19.3892 67.0114 18.7244 67.0114 17.8466C67.0114 17.233 66.8707 16.7131 66.5895 16.2869C66.3082 15.8608 65.9077 15.5369 65.3878 15.3153C64.8764 15.0938 64.2585 14.983 63.5341 14.983H60.108V20.5057ZM60.108 10.5852H63.0227C63.6449 10.5852 64.1946 10.4872 64.6719 10.2912C65.1491 10.0952 65.5199 9.81392 65.7841 9.44744C66.0568 9.07244 66.1932 8.61648 66.1932 8.07955C66.1932 7.26989 65.9034 6.65199 65.3239 6.22585C64.7443 5.79119 64.0114 5.57386 63.125 5.57386H60.108V10.5852Z" fill="#59A8FB"/>
<path d="M77.0469 26.1818V0H121.812V5.72727H84.1548V10.2273H120.841V15.9545H84.1548V20.4545H121.761V26.1818H77.0469Z" fill="#59A8FB"/>
<path d="M125.142 9.53674e-06H133.989L140.074 14.8296H140.381L146.466 9.53674e-06H155.312V26.1818H148.358V11.0455H148.153L142.324 25.9773H138.131L132.301 10.9432H132.097V26.1818H125.142V9.53674e-06Z" fill="#59A8FB"/>
<path d="M2.03711 61.1816V34.9998H9.14506V55.4544H19.7303V61.1816H2.03711ZM22.6035 61.1816V34.9998H41.4728V40.7271H29.7115V45.2271H40.5012V50.9544H29.7115V55.4544H41.4217V61.1816H22.6035ZM44.998 34.9998H53.8446L59.9299 49.8294H60.2367L66.3219 34.9998H75.1685V61.1816H68.214V46.0453H68.0094L62.1799 60.9771H57.9867L52.1571 45.943H51.9526V61.1816H44.998V34.9998ZM78.5371 61.1816V34.9998H89.8894C91.8837 34.9998 93.5584 35.2683 94.9135 35.8052C96.2772 36.3422 97.3042 37.1007 97.9945 38.0808C98.6934 39.0609 99.0428 40.2157 99.0428 41.5453C99.0428 42.5083 98.8297 43.3862 98.4036 44.1788C97.986 44.9714 97.3979 45.6362 96.6394 46.1731C95.8809 46.7015 94.9945 47.068 93.9803 47.2725V47.5282C95.1053 47.5708 96.128 47.8564 97.0485 48.3848C97.9689 48.9047 98.7019 49.6248 99.2473 50.5453C99.7928 51.4572 100.066 52.5311 100.066 53.7669C100.066 55.1987 99.6905 56.4728 98.9405 57.5893C98.199 58.7058 97.1422 59.5836 95.7701 60.2228C94.3979 60.862 92.7615 61.1816 90.861 61.1816H78.5371ZM85.6451 55.5055H88.9689C90.1621 55.5055 91.057 55.2839 91.6536 54.8407C92.2502 54.389 92.5485 53.7243 92.5485 52.8464C92.5485 52.2328 92.4078 51.7129 92.1266 51.2868C91.8453 50.8606 91.4448 50.5368 90.9249 50.3152C90.4135 50.0936 89.7956 49.9828 89.0712 49.9828H85.6451V55.5055ZM85.6451 45.585H88.5598C89.182 45.585 89.7317 45.487 90.209 45.291C90.6863 45.095 91.057 44.8137 91.3212 44.4473C91.5939 44.0723 91.7303 43.6163 91.7303 43.0794C91.7303 42.2697 91.4405 41.6518 90.861 41.2257C90.2814 40.791 89.5485 40.5737 88.6621 40.5737H85.6451V45.585ZM102.584 61.1816V34.9998H113.885C115.828 34.9998 117.529 35.3535 118.986 36.0609C120.443 36.7683 121.577 37.7868 122.387 39.1163C123.196 40.4458 123.601 42.0396 123.601 43.8975C123.601 45.7725 123.183 47.3535 122.348 48.6404C121.521 49.9274 120.358 50.899 118.858 51.5552C117.367 52.2115 115.624 52.5396 113.629 52.5396H106.879V47.0169H112.198C113.033 47.0169 113.744 46.9146 114.333 46.71C114.929 46.497 115.385 46.1603 115.7 45.7001C116.024 45.2399 116.186 44.639 116.186 43.8975C116.186 43.1475 116.024 42.5382 115.7 42.0694C115.385 41.5922 114.929 41.2427 114.333 41.0211C113.744 40.791 113.033 40.676 112.198 40.676H109.692V61.1816H102.584ZM117.925 49.1646L124.47 61.1816H116.749L110.357 49.1646H117.925ZM133.432 61.1816H125.762L134.404 34.9998H144.119L152.762 61.1816H145.091L139.364 42.2101H139.159L133.432 61.1816ZM132 50.8521H146.421V56.1703H132V50.8521ZM165.357 61.1816H155.283V34.9998H165.255C167.948 34.9998 170.275 35.524 172.235 36.5723C174.204 37.612 175.721 39.112 176.786 41.0723C177.86 43.024 178.397 45.3635 178.397 48.0907C178.397 50.818 177.864 53.1618 176.799 55.122C175.733 57.0737 174.225 58.5737 172.273 59.622C170.322 60.6618 168.016 61.1816 165.357 61.1816ZM162.391 55.1475H165.101C166.397 55.1475 167.501 54.9387 168.412 54.5211C169.333 54.1035 170.032 53.3833 170.509 52.3606C170.995 51.3379 171.238 49.9146 171.238 48.0907C171.238 46.2669 170.991 44.8436 170.496 43.8208C170.01 42.7981 169.295 42.0779 168.349 41.6603C167.411 41.2427 166.26 41.0339 164.897 41.0339H162.391V55.1475ZM207.049 48.0907C207.049 51.0055 206.482 53.4643 205.349 55.4672C204.215 57.4615 202.686 58.9743 200.759 60.0055C198.833 61.0282 196.686 61.5396 194.316 61.5396C191.93 61.5396 189.774 61.024 187.847 59.9927C185.93 58.9529 184.404 57.4359 183.271 55.4416C182.146 53.4387 181.583 50.9885 181.583 48.0907C181.583 45.176 182.146 42.7214 183.271 40.7271C184.404 38.7243 185.93 37.2115 187.847 36.1887C189.774 35.1575 191.93 34.6419 194.316 34.6419C196.686 34.6419 198.833 35.1575 200.759 36.1887C202.686 37.2115 204.215 38.7243 205.349 40.7271C206.482 42.7214 207.049 45.176 207.049 48.0907ZM199.737 48.0907C199.737 46.5225 199.528 45.2015 199.11 44.1277C198.701 43.0453 198.092 42.2271 197.282 41.6731C196.481 41.1106 195.492 40.8294 194.316 40.8294C193.14 40.8294 192.147 41.1106 191.338 41.6731C190.536 42.2271 189.927 43.0453 189.509 44.1277C189.1 45.2015 188.896 46.5225 188.896 48.0907C188.896 49.6589 189.1 50.9842 189.509 52.0666C189.927 53.1404 190.536 53.9586 191.338 54.5211C192.147 55.0751 193.14 55.3521 194.316 55.3521C195.492 55.3521 196.481 55.0751 197.282 54.5211C198.092 53.9586 198.701 53.1404 199.11 52.0666C199.528 50.9842 199.737 49.6589 199.737 48.0907Z" fill="#5874F6"/>
</svg>
